<svg width="75" height="56" viewBox="0 0 75 56" fill="none" xmlns="http://www.w3.org/2000/svg">
<path opacity="0.1" d="M9.48359 52.5036L7.63867 54.8692L7.64798 54.8764L9.48359 52.5036ZM3.09794 43.0696L0.271629 44.0756L0.272986 44.0794L3.09794 43.0696ZM3.09794 13.191L0.275422 12.1745L0.272986 12.1813L3.09794 13.191ZM9.50987 3.73082L11.3548 6.09647L11.3568 6.09489L9.50987 3.73082ZM29.6654 3.73082L27.8113 6.08926L27.8195 6.09569L27.8277 6.10207L29.6654 3.73082ZM36.0773 13.191L33.251 14.197L33.2536 14.2042L33.2562 14.2115L36.0773 13.191ZM36.1036 43.0696L38.9286 44.0794L38.9299 44.0756L36.1036 43.0696ZM29.718 52.5036L31.5536 54.8764L31.5629 54.8692L29.718 52.5036ZM28.7457 44.2784L26.1439 42.7848L28.7457 44.2784ZM30.5063 16.1868L27.6324 17.0474L27.6345 17.0545L27.6367 17.0615L30.5063 16.1868ZM26.2492 8.69744L24.2023 10.8906L24.2074 10.8954L24.2127 10.9003L26.2492 8.69744ZM10.4822 11.8771L13.0847 13.3694L13.0876 13.3643L10.4822 11.8771ZM8.66896 39.9688L5.79634 40.8336L8.66896 39.9688ZM12.8998 47.4055L10.8641 49.6091L10.8693 49.614L10.8745 49.6187L12.8998 47.4055ZM19.6008 52.7358C16.219 52.7358 13.5143 51.8288 11.3192 50.1307L7.64798 54.8764C11.0239 57.488 15.064 58.7358 19.6008 58.7358V52.7358ZM11.3285 50.1379C9.0875 48.3902 7.24849 45.7684 5.92289 42.0598L0.272986 44.0794C1.89057 48.6047 4.30866 52.2722 7.63868 54.8692L11.3285 50.1379ZM5.92425 42.0636C4.59877 38.3397 3.89055 33.7067 3.89055 28.0909H-2.10945C-2.10945 34.1778 -1.34607 39.5306 0.271632 44.0756L5.92425 42.0636ZM3.89055 28.0909C3.89055 22.512 4.59833 17.9065 5.92289 14.2008L0.272986 12.1813C-1.34563 16.7095 -2.10945 22.0373 -2.10945 28.0909H3.89055ZM5.92045 14.2076C7.26434 10.4764 9.11351 7.84438 11.3548 6.09647L7.66496 1.36517C4.33521 3.96196 1.90976 7.63679 0.27543 12.1745L5.92045 14.2076ZM11.3568 6.09489C13.5774 4.36004 16.2726 3.44602 19.6008 3.44602V-2.55398C15.0804 -2.55398 11.0484 -1.27813 7.66294 1.36675L11.3568 6.09489ZM19.6008 3.44602C22.9292 3.44602 25.6117 4.36001 27.8113 6.08926L31.5195 1.37238C28.1481 -1.2781 24.1209 -2.55398 19.6008 -2.55398V3.44602ZM27.8277 6.10207C30.0806 7.84807 31.926 10.4744 33.251 14.197L38.9037 12.1851C37.2855 7.63881 34.8563 3.95827 31.5031 1.35958L27.8277 6.10207ZM33.2562 14.2115C34.5952 17.9135 35.311 22.5151 35.311 28.0909H41.311C41.311 22.0342 40.5377 16.7025 38.8985 12.1706L33.2562 14.2115ZM35.311 28.0909C35.311 33.7067 34.6028 38.3397 33.2773 42.0636L38.9299 44.0756C40.5476 39.5306 41.311 34.1778 41.311 28.0909H35.311ZM33.2787 42.0598C31.9531 45.7684 30.1141 48.3902 27.8731 50.1379L31.5629 54.8692C34.8929 52.2722 37.311 48.6047 38.9286 44.0794L33.2787 42.0598ZM27.8824 50.1307C25.6872 51.8288 22.9825 52.7358 19.6008 52.7358V58.7358C24.1376 58.7358 28.1777 57.488 31.5536 54.8764L27.8824 50.1307ZM19.6008 52.9545C24.7374 52.9545 28.7126 50.3618 31.3474 45.772L26.1439 42.7848C24.4341 45.7632 22.3126 46.9545 19.6008 46.9545V52.9545ZM31.3474 45.772C33.8934 41.337 35.0042 35.3366 35.0042 28.0909H29.0042C29.0042 34.8603 27.9426 39.6516 26.1439 42.7848L31.3474 45.772ZM35.0042 28.0909C35.0042 23.2335 34.4858 18.953 33.376 15.3121L27.6367 17.0615C28.524 19.9727 29.0042 23.6282 29.0042 28.0909H35.0042ZM33.3802 15.3262C32.2974 11.7105 30.6522 8.6824 28.2858 6.49463L24.2127 10.9003C25.5603 12.1462 26.7531 14.111 27.6324 17.0474L33.3802 15.3262ZM28.2962 6.50428C25.8827 4.25174 22.9279 3.12216 19.6008 3.12216V9.12216C21.4593 9.12216 22.9367 9.70943 24.2023 10.8906L28.2962 6.50428ZM19.6008 3.12216C14.4692 3.12216 10.5132 5.77089 7.87671 10.39L13.0876 13.3643C14.8309 10.3101 16.954 9.12216 19.6008 9.12216V3.12216ZM7.87965 10.3849C5.3191 14.8505 4.19737 20.8556 4.19737 28.0909H10.1974C10.1974 21.3461 11.2655 16.5421 13.0847 13.3694L7.87965 10.3849ZM4.19737 28.0909C4.19737 32.9439 4.70615 37.2126 5.79634 40.8336L11.5416 39.1039C10.6697 36.2078 10.1974 32.558 10.1974 28.0909H4.19737ZM5.79634 40.8336C6.87851 44.428 8.51443 47.4385 10.8641 49.6091L14.9355 45.2019C13.6062 43.9739 12.4215 42.0265 11.5416 39.1039L5.79634 40.8336ZM10.8745 49.6187C13.3067 51.8444 16.2713 52.9545 19.6008 52.9545V46.9545C17.7096 46.9545 16.2069 46.3653 14.9251 45.1923L10.8745 49.6187ZM74.6173 1.18182H77.6173V-1.81818H74.6173V1.18182ZM74.6173 55V58H77.6173V55H74.6173ZM68.1002 55H65.1002V58H68.1002V55ZM68.1002 8.0142H71.1002V5.0142H68.1002V8.0142ZM67.7849 8.0142V5.0142H66.8796L66.1254 5.51498L67.7849 8.0142ZM54.6457 16.7386H51.6457V22.3318L56.3052 19.2379L54.6457 16.7386ZM54.6457 10.1165L52.9861 7.61732L51.6457 8.50744V10.1165H54.6457ZM68.1002 1.18182V-1.81818H67.1948L66.4406 -1.31733L68.1002 1.18182ZM71.6173 1.18182V55H77.6173V1.18182H71.6173ZM74.6173 52H68.1002V58H74.6173V52ZM71.1002 55V8.0142H65.1002V55H71.1002ZM68.1002 5.0142H67.7849V11.0142H68.1002V5.0142ZM66.1254 5.51498L52.9862 14.2394L56.3052 19.2379L69.4444 10.5134L66.1254 5.51498ZM57.6457 16.7386V10.1165H51.6457V16.7386H57.6457ZM56.3053 12.6156L69.7598 3.68097L66.4406 -1.31733L52.9861 7.61732L56.3053 12.6156ZM68.1002 4.18182H74.6173V-1.81818H68.1002V4.18182Z" fill="#017BAC"/>
</svg>
