<svg width="22" height="16" viewBox="0 0 22 16" fill="none" xmlns="http://www.w3.org/2000/svg">
<path d="M13.1006 15.4308C12.8189 15.149 12.6836 14.8086 12.6949 14.4095C12.7071 14.0104 12.8541 13.6699 13.1358 13.3882L17.1153 9.40872H1.40867C1.00955 9.40872 0.674752 9.27349 0.404288 9.00302C0.134763 8.7335 0 8.39917 0 8.00005C0 7.60093 0.134763 7.26613 0.404288 6.99567C0.674752 6.72615 1.00955 6.59138 1.40867 6.59138H17.1153L13.1006 2.57668C12.8189 2.29495 12.678 1.96015 12.678 1.5723C12.678 1.18539 12.8189 0.851062 13.1006 0.569328C13.3823 0.287595 13.7171 0.146729 14.105 0.146729C14.4919 0.146729 14.8262 0.287595 15.108 0.569328L21.5526 7.01398C21.6935 7.15485 21.7935 7.30746 21.8527 7.4718C21.9109 7.63614 21.94 7.81223 21.94 8.00005C21.94 8.18787 21.9109 8.36396 21.8527 8.5283C21.7935 8.69265 21.6935 8.84525 21.5526 8.98612L15.0727 15.466C14.8145 15.7242 14.4919 15.8534 14.105 15.8534C13.7171 15.8534 13.3823 15.7125 13.1006 15.4308V15.4308Z" fill="white"/>
</svg>
