<svg width="274" height="274" viewBox="0 0 274 274" fill="none" xmlns="http://www.w3.org/2000/svg">
<g filter="url(#filter0_d_1_1279)">
<rect x="88" y="69" width="80" height="80" rx="6" fill="white"/>
</g>
<path d="M139.39 88.7344C134.78 88.7344 130.49 91.1173 128 94.948C125.51 91.1173 121.21 88.7344 116.61 88.7344C109.11 88.7344 103 94.8776 103 102.418C103 123.633 127.41 132.763 127.66 132.853C127.77 132.893 127.88 132.913 128 132.913C128.11 132.913 128.23 132.893 128.34 132.853C128.59 132.763 153 123.633 153 102.418C153 94.8776 146.89 88.7344 139.39 88.7344ZM138.108 115.248C138.108 115.804 137.66 116.253 137.108 116.253H131.399V121.993C131.399 122.549 130.951 122.999 130.399 122.999H125.598C125.046 122.999 124.598 122.549 124.598 121.993V116.253H118.888C118.336 116.253 117.888 115.804 117.888 115.248V110.421C117.888 109.866 118.336 109.415 118.888 109.415H124.598V103.675C124.598 103.12 125.046 102.67 125.598 102.67H130.399C130.951 102.67 131.399 103.12 131.399 103.675V109.415H137.108C137.66 109.415 138.108 109.866 138.108 110.421V115.248Z" fill="#440E66"/>
<defs>
<filter id="filter0_d_1_1279" x="0" y="0" width="274" height="274" filterUnits="userSpaceOnUse" color-interpolation-filters="sRGB">
<feFlood flood-opacity="0" result="BackgroundImageFix"/>
<feColorMatrix in="SourceAlpha" type="matrix" values="0 0 0 0 0 0 0 0 0 0 0 0 0 0 0 0 0 0 127 0" result="hardAlpha"/>
<feOffset dx="9" dy="28"/>
<feGaussianBlur stdDeviation="48.5"/>
<feComposite in2="hardAlpha" operator="out"/>
<feColorMatrix type="matrix" values="0 0 0 0 0 0 0 0 0 0 0 0 0 0 0 0 0 0 0.3 0"/>
<feBlend mode="normal" in2="BackgroundImageFix" result="effect1_dropShadow_1_1279"/>
<feBlend mode="normal" in="SourceGraphic" in2="effect1_dropShadow_1_1279" result="shape"/>
</filter>
</defs>
</svg>
