<svg width="33" height="33" viewBox="0 0 33 33" fill="none" xmlns="http://www.w3.org/2000/svg">
<g clip-path="url(#clip0_652_27)">
<path opacity="0.2" d="M16.5 0.592285C12.2565 0.592285 8.18687 2.27799 5.18629 5.27858C2.18571 8.27916 0.5 12.3488 0.5 16.5923C0.5 20.8357 2.18571 24.9054 5.18629 27.906C8.18687 30.9066 12.2565 32.5923 16.5 32.5923C20.7435 32.5923 24.8131 30.9066 27.8137 27.906C30.8143 24.9054 32.5 20.8357 32.5 16.5923C32.5 12.3488 30.8143 8.27916 27.8137 5.27858C24.8131 2.27799 20.7435 0.592285 16.5 0.592285V0.592285ZM23.5 15.5923C23.7652 15.5923 24.0196 15.6976 24.2071 15.8852C24.3946 16.0727 24.5 16.3271 24.5 16.5923C24.5 16.8575 24.3946 17.1119 24.2071 17.2994C24.0196 17.4869 23.7652 17.5923 23.5 17.5923H11.914L16.208 21.8843C16.301 21.9773 16.3747 22.0876 16.425 22.2091C16.4754 22.3306 16.5013 22.4608 16.5013 22.5923C16.5013 22.7238 16.4754 22.854 16.425 22.9755C16.3747 23.0969 16.301 23.2073 16.208 23.3003C16.115 23.3933 16.0046 23.467 15.8832 23.5173C15.7617 23.5677 15.6315 23.5935 15.5 23.5935C15.3685 23.5935 15.2383 23.5677 15.1168 23.5173C14.9954 23.467 14.885 23.3933 14.792 23.3003L8.792 17.3003C8.69887 17.2074 8.62499 17.097 8.57458 16.9756C8.52416 16.8541 8.49821 16.7238 8.49821 16.5923C8.49821 16.4608 8.52416 16.3305 8.57458 16.209C8.62499 16.0875 8.69887 15.9772 8.792 15.8843L14.792 9.88428C14.885 9.79131 14.9954 9.71756 15.1168 9.66724C15.2383 9.61692 15.3685 9.59102 15.5 9.59102C15.6315 9.59102 15.7617 9.61692 15.8832 9.66724C16.0046 9.71756 16.115 9.79131 16.208 9.88428C16.301 9.97726 16.3747 10.0876 16.425 10.2091C16.4754 10.3306 16.5013 10.4608 16.5013 10.5923C16.5013 10.7238 16.4754 10.854 16.425 10.9755C16.3747 11.0969 16.301 11.2073 16.208 11.3003L11.914 15.5923H23.5Z" fill="#440E66"/>
</g>
<defs>
<clipPath id="clip0_652_27">
<rect width="32" height="32" fill="white" transform="matrix(-1 0 0 1 32.5 0.592285)"/>
</clipPath>
</defs>
</svg>
