<svg width="99" height="100" viewBox="0 0 99 100" fill="none" xmlns="http://www.w3.org/2000/svg">
<path d="M61.191 53.106V78.5873C61.1908 81.2888 60.1176 83.8795 58.2074 85.7897C56.2972 87.6999 53.7065 88.7731 51.005 88.7733H21.4128C18.7114 88.7731 16.1206 87.6999 14.2104 85.7897C12.3002 83.8795 11.227 81.2888 11.2268 78.5873V31.4663C11.227 28.7649 12.3002 26.1742 14.2104 24.264C16.1206 22.3538 18.7114 21.2805 21.4128 21.2803H51.005C52.4117 21.2788 53.8034 21.5695 55.0918 22.134C56.3803 22.6985 57.5373 23.5246 58.4897 24.5598L68.4472 14.6032C67.4571 13.531 66.2554 12.6757 64.9181 12.0913C63.5808 11.5069 62.1368 11.2061 60.6774 11.2078H11.7423C10.3519 11.2078 8.97502 11.4816 7.69039 12.0137C6.40575 12.5457 5.23851 13.3256 4.2553 14.3088C3.2721 15.292 2.49219 16.4593 1.96012 17.7439C1.42805 19.0286 1.15423 20.4054 1.1543 21.7959V88.2578C1.15423 89.6482 1.42805 91.0251 1.96012 92.3097C2.49219 93.5944 3.2721 94.7616 4.2553 95.7448C5.23851 96.728 6.40575 97.5079 7.69039 98.04C8.97502 98.5721 10.3519 98.8459 11.7423 98.8458H60.6774C63.4855 98.8456 66.1785 97.73 68.1641 95.7444C70.1497 93.7588 71.2652 91.0658 71.2654 88.2578V43.0316L61.191 53.106Z" fill="#A9DEFC"/>
<path d="M90.843 7.81046C92.9144 9.88191 94.0781 12.6914 94.0781 15.6209C94.0781 18.5503 92.9144 21.3598 90.843 23.4313L89.1987 25.0756L73.5778 9.4547L75.2221 7.81039C77.2936 5.73896 80.1031 4.57525 83.0326 4.57526C85.9621 4.57527 88.7715 5.73901 90.843 7.81046V7.81046Z" fill="#A9DEFC"/>
<path d="M60.6773 100H11.7423C8.6291 99.9965 5.64446 98.7582 3.44313 96.5569C1.24179 94.3555 0.00352843 91.3709 0 88.2577V37.2874C0 36.9813 0.121605 36.6877 0.338063 36.4712C0.554521 36.2548 0.848101 36.1332 1.15422 36.1332C1.46034 36.1332 1.75392 36.2548 1.97038 36.4712C2.18683 36.6877 2.30844 36.9813 2.30844 37.2874V88.2577C2.31125 90.7589 3.30607 93.1568 5.07465 94.9254C6.84322 96.6939 9.24112 97.6887 11.7423 97.6916H60.6773C63.1785 97.6887 65.5764 96.6939 67.3449 94.9253C69.1135 93.1568 70.1083 90.7589 70.1111 88.2577V45.8182L58.7041 57.2251C55.9021 60.0188 52.242 61.789 48.3123 62.2511L40.8541 63.1189C40.138 63.2021 39.4123 63.1223 38.7314 62.8854C38.0505 62.6485 37.432 62.2606 36.9222 61.7508C36.4124 61.2411 36.0245 60.6226 35.7875 59.9417C35.5505 59.2608 35.4707 58.5352 35.5538 57.819L36.4214 50.3604C36.8843 46.4311 38.6543 42.7713 41.4472 39.9688L66.7988 14.619C65.0901 13.1653 62.9208 12.3654 60.6773 12.362H11.7423C9.24112 12.3648 6.84322 13.3597 5.07465 15.1282C3.30607 16.8968 2.31125 19.2947 2.30844 21.7958V27.2842C2.30844 27.5903 2.18683 27.8839 1.97038 28.1003C1.75392 28.3168 1.46034 28.4384 1.15422 28.4384C0.848101 28.4384 0.554521 28.3168 0.338063 28.1003C0.121605 27.8839 0 27.5903 0 27.2842V21.7958C0.00351319 18.6827 1.24177 15.698 3.44311 13.4967C5.64445 11.2954 8.6291 10.0571 11.7423 10.0536H60.6773C62.2951 10.0559 63.8951 10.3914 65.3775 11.0392C66.86 11.687 68.1931 12.6332 69.2939 13.8188C69.4967 14.0378 69.6068 14.3268 69.6011 14.6252C69.5954 14.9236 69.4743 15.2083 69.2632 15.4193L43.0798 41.6009C40.6538 44.0351 39.1164 47.214 38.7144 50.6271L37.8469 58.0851C37.8039 58.4554 37.8452 58.8306 37.9677 59.1826C38.0901 59.5347 38.2907 59.8545 38.5542 60.1181C38.8177 60.3817 39.1374 60.5823 39.4895 60.7049C39.8415 60.8275 40.2166 60.8689 40.5869 60.826L48.0457 59.9581C51.4589 59.5568 54.638 58.0193 57.0718 55.5928L70.4492 42.2156C70.6106 42.0542 70.8163 41.9443 71.0402 41.8997C71.264 41.8552 71.4961 41.878 71.707 41.9654C71.9179 42.0527 72.0981 42.2006 72.225 42.3904C72.3518 42.5802 72.4195 42.8033 72.4196 43.0316V88.2577C72.416 91.3709 71.1778 94.3555 68.9764 96.5569C66.7751 98.7582 63.7905 99.9965 60.6773 100V100Z" fill="#1D71A0"/>
<path d="M1.15422 34.4017C0.848101 34.4017 0.554521 34.2801 0.338063 34.0636C0.121605 33.8472 0 33.5536 0 33.2475V31.3238C0 31.0177 0.121605 30.7241 0.338063 30.5076C0.554521 30.2912 0.848101 30.1696 1.15422 30.1696C1.46034 30.1696 1.75392 30.2912 1.97038 30.5076C2.18683 30.7241 2.30844 31.0177 2.30844 31.3238V33.2475C2.30844 33.5536 2.18683 33.8472 1.97038 34.0636C1.75392 34.2801 1.46034 34.4017 1.15422 34.4017Z" fill="#1D71A0"/>
<path d="M51.0054 89.9274H21.4131C18.4065 89.924 15.524 88.7282 13.3981 86.6022C11.2721 84.4762 10.0762 81.5938 10.0729 78.5872V31.4662C10.0763 28.4596 11.2722 25.5772 13.3981 23.4512C15.5241 21.3253 18.4065 20.1294 21.4131 20.126H51.0054C52.5709 20.1282 54.1192 20.4536 55.5532 21.0819C56.9872 21.7102 58.2759 22.6279 59.3388 23.7774C59.541 23.9964 59.6505 24.2853 59.6445 24.5833C59.6385 24.8814 59.5174 25.1656 59.3066 25.3763L43.0802 41.6008C40.6543 44.0351 39.1169 47.2139 38.7148 50.627L37.8472 58.085C37.8043 58.4553 37.8456 58.8305 37.968 59.1825C38.0905 59.5346 38.291 59.8544 38.5546 60.118C38.8181 60.3816 39.1378 60.5822 39.4898 60.7048C39.8419 60.8274 40.217 60.8688 40.5873 60.8259L48.046 59.958C51.4593 59.5567 54.6384 58.0192 57.0722 55.5927L60.3752 52.2899C60.5366 52.1285 60.7423 52.0186 60.9662 51.974C61.1901 51.9295 61.4221 51.9523 61.633 52.0397C61.8439 52.127 62.0242 52.275 62.151 52.4648C62.2779 52.6546 62.3456 52.8777 62.3456 53.106V78.5872C62.3422 81.5938 61.1464 84.4762 59.0204 86.6022C56.8944 88.7282 54.0119 89.924 51.0054 89.9274ZM21.4131 22.4344C19.0185 22.4371 16.7228 23.3895 15.0296 25.0827C13.3364 26.7759 12.384 29.0716 12.3813 31.4662V78.5872C12.384 80.9817 13.3364 83.2774 15.0296 84.9707C16.7228 86.6639 19.0185 87.6163 21.4131 87.619H51.0054C53.3999 87.6163 55.6956 86.6638 57.3888 84.9706C59.082 83.2774 60.0344 80.9817 60.0371 78.5872V55.8925L58.7045 57.225C55.9024 60.0186 52.2424 61.7888 48.3127 62.251L40.8545 63.1188C40.1384 63.202 39.4127 63.1222 38.7318 62.8853C38.0509 62.6484 37.4324 62.2605 36.9226 61.7507C36.4128 61.241 36.0249 60.6225 35.7879 59.9416C35.5509 59.2607 35.471 58.5351 35.5542 57.8189L36.4218 50.3603C36.8848 46.431 38.6548 42.7712 41.4476 39.9687L56.8419 24.5762C55.2099 23.1961 53.1426 22.4375 51.0054 22.4344H21.4131Z" fill="#1D71A0"/>
<path d="M89.2089 26.2421C89.0573 26.2421 88.9072 26.2122 88.7671 26.1542C88.6271 26.0962 88.4999 26.0112 88.3927 25.9039L72.7694 10.2807C72.6622 10.1736 72.5772 10.0463 72.5192 9.90628C72.4612 9.76624 72.4313 9.61615 72.4313 9.46458C72.4313 9.313 72.4612 9.16291 72.5192 9.02288C72.5772 8.88284 72.6622 8.7556 72.7694 8.64842L74.4139 7.00387C75.547 5.87085 76.892 4.97209 78.3724 4.3589C79.8528 3.74572 81.4394 3.43011 83.0417 3.43011C84.6441 3.43011 86.2307 3.74572 87.7111 4.3589C89.1914 4.97209 90.5365 5.87085 91.6695 7.00387C93.9544 9.29388 95.2376 12.3967 95.2376 15.6317C95.2376 18.8666 93.9544 21.9694 91.6695 24.2595L90.025 25.904C89.9178 26.0112 89.7906 26.0962 89.6506 26.1543C89.5105 26.2123 89.3604 26.2421 89.2089 26.2421V26.2421ZM75.2179 9.46457L89.2089 23.4556L90.0372 22.6272C91.8898 20.7704 92.9302 18.2546 92.9302 15.6317C92.9302 13.0089 91.8898 10.4931 90.0372 8.6363C89.1186 7.71763 88.028 6.9889 86.8277 6.49171C85.6274 5.99453 84.3409 5.73864 83.0418 5.73864C81.7426 5.73864 80.4561 5.99453 79.2558 6.49171C78.0555 6.9889 76.9649 7.71763 76.0463 8.6363L75.2179 9.46457Z" fill="#1D71A0"/>
<path d="M40.2945 63.1514C39.6208 63.15 38.9549 63.0063 38.3406 62.7297C37.7263 62.4531 37.1773 62.0498 36.7298 61.5462C36.2822 61.0426 35.9461 60.4501 35.7435 59.8075C35.5409 59.165 35.4764 58.4869 35.5542 57.8176L36.4214 50.3603C36.8839 46.4308 38.6544 42.771 41.4482 39.9693L72.769 8.64844C72.9855 8.43201 73.2791 8.31042 73.5852 8.31042C73.8913 8.31042 74.1849 8.43201 74.4014 8.64844L90.0247 24.2717C90.2411 24.4882 90.3627 24.7817 90.3627 25.0878C90.3627 25.3939 90.2411 25.6875 90.0247 25.904L58.7038 57.2247C55.9021 60.0187 52.2423 61.7892 48.3127 62.2517L40.8553 63.1189C40.6692 63.1405 40.4819 63.1514 40.2945 63.1514V63.1514ZM73.5852 11.0969L43.0806 41.6015C40.6539 44.035 39.1161 47.2139 38.7144 50.6271L37.8472 58.0843C37.8042 58.4548 37.8455 58.8301 37.968 59.1824C38.0906 59.5346 38.2912 59.8545 38.5549 60.1182C38.8186 60.3819 39.1386 60.5825 39.4908 60.705C39.843 60.8276 40.2184 60.8689 40.5888 60.8258L48.0461 59.9586C51.4592 59.5569 54.638 58.0192 57.0715 55.5925L87.5762 25.0879L73.5852 11.0969Z" fill="#1D71A0"/>
</svg>
