<svg width="100" height="100" viewBox="0 0 100 100" fill="none" xmlns="http://www.w3.org/2000/svg">
<path d="M50 100C22.4302 100 0 77.5698 0 50C0 22.4302 22.4302 0 50 0C77.5698 0 100 22.4302 100 50C100 77.5698 77.5698 100 50 100ZM50 6.25C25.876 6.25 6.25 25.876 6.25 50C6.25 74.124 25.876 93.75 50 93.75C74.124 93.75 93.75 74.124 93.75 50C93.75 25.876 74.124 6.25 50 6.25ZM77.7958 60.7729C78.5635 59.2365 77.9427 57.3792 76.4135 56.6C74.8812 55.826 73.0063 56.4354 72.2156 57.9583C71.9865 58.3979 66.4354 68.75 50 68.75C33.6042 68.75 28.0406 58.449 27.7865 57.9625C27.0125 56.4271 25.1385 55.8052 23.6021 56.5802C22.0583 57.3521 21.4323 59.2292 22.2042 60.7729C22.4958 61.3542 29.5531 75 50 75C70.4469 75 77.5042 61.3542 77.7958 60.7729ZM65.625 43.75C62.1781 43.75 59.375 40.9469 59.375 37.5C59.375 34.0531 62.1781 31.25 65.625 31.25C69.0719 31.25 71.875 34.0531 71.875 37.5C71.875 40.9469 69.0719 43.75 65.625 43.75ZM34.375 43.75C30.9281 43.75 28.125 40.9469 28.125 37.5C28.125 34.0531 30.9281 31.25 34.375 31.25C37.8219 31.25 40.625 34.0531 40.625 37.5C40.625 40.9469 37.8219 43.75 34.375 43.75Z" fill="#33AF8F"/>
</svg>
