<svg width="33" height="33" viewBox="0 0 33 33" fill="none" xmlns="http://www.w3.org/2000/svg">
<g clip-path="url(#clip0_652_29)">
<path d="M16.5 0.592285C20.7435 0.592285 24.8131 2.27799 27.8137 5.27858C30.8143 8.27916 32.5 12.3488 32.5 16.5923C32.5 20.8357 30.8143 24.9054 27.8137 27.906C24.8131 30.9066 20.7435 32.5923 16.5 32.5923C12.2565 32.5923 8.18687 30.9066 5.18629 27.906C2.18571 24.9054 0.5 20.8357 0.5 16.5923C0.5 12.3488 2.18571 8.27916 5.18629 5.27858C8.18687 2.27799 12.2565 0.592285 16.5 0.592285V0.592285ZM9.5 15.5923C9.23478 15.5923 8.98043 15.6976 8.79289 15.8852C8.60536 16.0727 8.5 16.3271 8.5 16.5923C8.5 16.8575 8.60536 17.1119 8.79289 17.2994C8.98043 17.4869 9.23478 17.5923 9.5 17.5923H21.086L16.792 21.8843C16.699 21.9773 16.6253 22.0876 16.575 22.2091C16.5246 22.3306 16.4987 22.4608 16.4987 22.5923C16.4987 22.7238 16.5246 22.854 16.575 22.9755C16.6253 23.0969 16.699 23.2073 16.792 23.3003C16.885 23.3933 16.9954 23.467 17.1168 23.5173C17.2383 23.5677 17.3685 23.5935 17.5 23.5935C17.6315 23.5935 17.7617 23.5677 17.8832 23.5173C18.0046 23.467 18.115 23.3933 18.208 23.3003L24.208 17.3003C24.3011 17.2074 24.375 17.097 24.4254 16.9756C24.4758 16.8541 24.5018 16.7238 24.5018 16.5923C24.5018 16.4608 24.4758 16.3305 24.4254 16.209C24.375 16.0875 24.3011 15.9772 24.208 15.8843L18.208 9.88428C18.115 9.79131 18.0046 9.71756 17.8832 9.66724C17.7617 9.61692 17.6315 9.59102 17.5 9.59102C17.3685 9.59102 17.2383 9.61692 17.1168 9.66724C16.9954 9.71756 16.885 9.79131 16.792 9.88428C16.699 9.97726 16.6253 10.0876 16.575 10.2091C16.5246 10.3306 16.4987 10.4608 16.4987 10.5923C16.4987 10.7238 16.5246 10.854 16.575 10.9755C16.6253 11.0969 16.699 11.2073 16.792 11.3003L21.086 15.5923H9.5Z" fill="#440E66"/>
</g>
<defs>
<clipPath id="clip0_652_29">
<rect width="32" height="32" fill="white" transform="translate(0.5 0.592285)"/>
</clipPath>
</defs>
</svg>
