<svg width="20" height="19" viewBox="0 0 20 19" fill="none" xmlns="http://www.w3.org/2000/svg">
<path d="M9.04894 1.3543C9.3483 0.432987 10.6517 0.432986 10.9511 1.3543L12.4697 6.02806C12.6035 6.44008 12.9875 6.71904 13.4207 6.71904H18.335C19.3037 6.71904 19.7065 7.95866 18.9228 8.52806L14.947 11.4166C14.5966 11.6712 14.4499 12.1226 14.5838 12.5346L16.1024 17.2084C16.4017 18.1297 15.3472 18.8958 14.5635 18.3264L10.5878 15.4379C10.2373 15.1832 9.7627 15.1832 9.41221 15.4379L5.43648 18.3264C4.65276 18.8958 3.59828 18.1297 3.89763 17.2084L5.41623 12.5346C5.5501 12.1226 5.40345 11.6712 5.05296 11.4166L1.07722 8.52806C0.293507 7.95866 0.696283 6.71904 1.66501 6.71904H6.57929C7.01252 6.71904 7.39647 6.44008 7.53035 6.02806L9.04894 1.3543Z" fill="#FFCA33"/>
</svg>
