<svg width="59" height="59" viewBox="0 0 59 59" fill="none" xmlns="http://www.w3.org/2000/svg">
<path d="M26.5498 29.5009V32.4508H23.5999C22.8175 32.4508 22.0672 32.7616 21.514 33.3148C20.9608 33.868 20.65 34.6184 20.65 35.4007C20.65 36.1831 20.9608 36.9334 21.514 37.4866C22.0672 38.0398 22.8175 38.3506 23.5999 38.3506H26.5498V41.3005C26.5498 42.0829 26.8606 42.8332 27.4138 43.3864C27.967 43.9397 28.7173 44.2505 29.4997 44.2505C30.2821 44.2505 31.0324 43.9397 31.5856 43.3864C32.1388 42.8332 32.4496 42.0829 32.4496 41.3005V38.3506H35.3995C36.1819 38.3506 36.9322 38.0398 37.4854 37.4866C38.0386 36.9334 38.3494 36.1831 38.3494 35.4007C38.3494 34.6184 38.0386 33.868 37.4854 33.3148C36.9322 32.7616 36.1819 32.4508 35.3995 32.4508H32.4496V29.5009C32.4496 28.7185 32.1388 27.9682 31.5856 27.415C31.0324 26.8618 30.2821 26.551 29.4997 26.551C28.7173 26.551 27.967 26.8618 27.4138 27.415C26.8606 27.9682 26.5498 28.7185 26.5498 29.5009ZM58.0076 24.3444L31.4584 0.745164C30.9189 0.265168 30.2219 0 29.4997 0C28.7775 0 28.0805 0.265168 27.541 0.745164L0.991765 24.3444C0.406556 24.8639 0.051682 25.5946 0.00521189 26.3758C-0.0412582 27.1569 0.224482 27.9245 0.743972 28.5097C1.26346 29.0949 1.99415 29.4498 2.77529 29.4963C3.55643 29.5427 4.32404 29.277 4.90925 28.7575L5.90042 27.8755V56.0501C5.90042 56.8325 6.21121 57.5828 6.76443 58.136C7.31764 58.6892 8.06796 59 8.85033 59H50.1491C50.9314 59 51.6818 58.6892 52.235 58.136C52.7882 57.5828 53.099 56.8325 53.099 56.0501V27.8755L54.0902 28.7575C54.6754 29.277 55.443 29.5427 56.2241 29.4963C56.6109 29.4733 56.9894 29.3743 57.3379 29.205C57.6864 29.0358 57.9982 28.7995 58.2554 28.5097C58.5127 28.22 58.7103 27.8824 58.8371 27.5162C58.9638 27.1501 59.0172 26.7626 58.9942 26.3758C58.9712 25.989 58.8722 25.6105 58.7029 25.262C58.5337 24.9135 58.2974 24.6017 58.0076 24.3444ZM47.1992 53.1002H11.8002V22.6306L29.4997 6.89868L47.1992 22.6306V53.1002Z" fill="#32CD32"/>
</svg>
