<svg width="59" height="60" viewBox="0 0 59 60" fill="none" xmlns="http://www.w3.org/2000/svg">
<path d="M26.5498 29.5688V32.5187H23.5999C22.8175 32.5187 22.0672 32.8295 21.514 33.3827C20.9608 33.9359 20.65 34.6862 20.65 35.4686C20.65 36.251 20.9608 37.0013 21.514 37.5545C22.0672 38.1077 22.8175 38.4185 23.5999 38.4185H26.5498V41.3684C26.5498 42.1508 26.8606 42.9011 27.4138 43.4543C27.967 44.0075 28.7173 44.3183 29.4997 44.3183C30.2821 44.3183 31.0324 44.0075 31.5856 43.4543C32.1388 42.9011 32.4496 42.1508 32.4496 41.3684V38.4185H35.3995C36.1819 38.4185 36.9322 38.1077 37.4854 37.5545C38.0386 37.0013 38.3494 36.251 38.3494 35.4686C38.3494 34.6862 38.0386 33.9359 37.4854 33.3827C36.9322 32.8295 36.1819 32.5187 35.3995 32.5187H32.4496V29.5688C32.4496 28.7864 32.1388 28.0361 31.5856 27.4829C31.0324 26.9296 30.2821 26.6189 29.4997 26.6189C28.7173 26.6189 27.967 26.9296 27.4138 27.4829C26.8606 28.0361 26.5498 28.7864 26.5498 29.5688ZM58.0076 24.4123L31.4584 0.813035C30.9189 0.33304 30.2219 0.0678711 29.4997 0.0678711C28.7775 0.0678711 28.0805 0.33304 27.541 0.813035L0.991765 24.4123C0.406556 24.9318 0.051682 25.6625 0.00521189 26.4436C-0.0412582 27.2248 0.224482 27.9924 0.743972 28.5776C1.26346 29.1628 1.99415 29.5177 2.77529 29.5641C3.55643 29.6106 4.32404 29.3449 4.90925 28.8254L5.90042 27.9434V56.118C5.90042 56.9003 6.21121 57.6507 6.76443 58.2039C7.31764 58.7571 8.06796 59.0679 8.85033 59.0679H50.1491C50.9314 59.0679 51.6818 58.7571 52.235 58.2039C52.7882 57.6507 53.099 56.9003 53.099 56.118V27.9434L54.0902 28.8254C54.6754 29.3449 55.443 29.6106 56.2241 29.5641C56.6109 29.5411 56.9894 29.4422 57.3379 29.2729C57.6864 29.1036 57.9982 28.8674 58.2554 28.5776C58.5127 28.2878 58.7103 27.9502 58.8371 27.5841C58.9638 27.2179 59.0172 26.8304 58.9942 26.4436C58.9712 26.0569 58.8722 25.6784 58.7029 25.3299C58.5337 24.9813 58.2974 24.6695 58.0076 24.4123V24.4123ZM47.1992 53.1681H11.8002V22.6984L29.4997 6.96655L47.1992 22.6984V53.1681Z" fill="white"/>
</svg>
